<svg xmlns="http://www.w3.org/2000/svg" width="32" height="32" viewBox="0 0 512.001 512.001"><g fill="#16afe0"><path d="M395.349 116.653c-3.91-3.91-10.24-3.91-14.14 0-3.91 3.91-3.91 10.24 0 14.14 3.9 3.909 10.23 3.909 14.14 0 3.91-3.9 3.91-10.23 0-14.14zM130.793 381.208c-3.9-3.909-10.24-3.909-14.14 0-3.91 3.9-3.91 10.24 0 14.14 3.9 3.91 10.24 3.91 14.14 0 3.91-3.9 3.91-10.24 0-14.14z"/><path d="M497.339 156.08L355.923 14.666c-19.539-19.552-51.163-19.555-70.714-.003L14.662 285.209c-19.542 19.543-19.558 51.166 0 70.711l141.416 141.414.002.003c19.537 19.549 51.16 19.552 70.712 0l270.546-270.546c19.542-19.543 19.558-51.166.001-70.711zm-14.143 56.569L212.65 483.196c-11.726 11.727-30.694 11.741-42.425.003l-.002-.003-141.42-141.42c-11.73-11.721-11.733-30.692.002-42.424L299.35 28.805c11.729-11.73 30.697-11.739 42.427 0l141.42 141.42c11.732 11.721 11.734 30.692-.001 42.424z"/><path d="M444.849 166.149c-15.598-15.595-40.974-15.596-56.568-.002-15.635 15.622-15.646 40.935-.003 56.563 15.637 15.639 40.934 15.639 56.571 0v.001c15.627-15.627 15.629-40.932 0-56.562zm-14.141 42.42c-7.819 7.82-20.463 7.826-28.291-.003-7.814-7.808-7.82-20.458.003-28.274 7.8-7.8 20.489-7.799 28.288 0 7.81 7.81 7.81 20.467 0 28.277zm-59.568 31.29c-15.598-15.596-40.974-15.597-56.568-.003-15.638 15.625-15.645 40.933 0 56.578 15.595 15.582 40.969 15.582 56.565 0l.006-.007c15.588-15.603 15.587-40.978-.003-56.568zm-14.142 42.43c-7.801 7.794-20.491 7.791-28.287 0-7.817-7.816-7.825-20.47 0-28.288 7.8-7.8 20.488-7.799 28.287 0 7.794 7.794 7.794 20.484 0 28.288zm-60.568 32.279c-15.63-15.629-40.939-15.644-56.571 0-15.596 15.598-15.596 40.975 0 56.572 15.593 15.592 40.967 15.589 56.568.003l.006-.007c15.581-15.595 15.581-40.97-.003-56.568zm-14.144 42.433c-7.804 7.79-20.491 7.792-28.284-.004-7.799-7.799-7.799-20.489.003-28.291 7.797-7.803 20.451-7.829 28.281-.001 7.794 7.803 7.794 20.496 0 28.296zm-59.571 31.279c-15.624-15.637-40.935-15.645-56.565-.003-15.596 15.598-15.596 40.975 0 56.572 15.594 15.593 40.966 15.594 56.562 0v-.001c15.596-15.597 15.596-40.974.003-56.568zm-14.145 42.426c-7.796 7.796-20.481 7.796-28.277 0-7.799-7.799-7.799-20.489.003-28.291 7.81-7.816 20.458-7.819 28.274.002 7.799 7.801 7.799 20.492 0 28.289zM345.851 67.151c-15.595-15.593-40.967-15.596-56.562.001-15.596 15.597-15.596 40.974-.003 56.568 15.629 15.641 40.939 15.641 56.568 0 15.593-15.597 15.592-40.973-.003-56.569zm-14.143 42.431l-.003.003c-7.81 7.816-20.458 7.819-28.274-.002-7.799-7.8-7.799-20.491 0-28.289 7.797-7.797 20.48-7.797 28.277 0 7.799 7.799 7.799 20.489 0 28.288zm-59.566 31.278c-15.591-15.59-40.967-15.592-56.574.004-15.581 15.595-15.581 40.97.003 56.568 15.635 15.634 40.942 15.641 56.574-.003 15.593-15.597 15.592-40.973-.003-56.569zM258 183.29l-.003.003c-7.797 7.803-20.451 7.829-28.281.001-7.795-7.801-7.795-20.494-.007-28.289 7.797-7.79 20.49-7.806 28.291-.003 7.799 7.799 7.799 20.489 0 28.288zm-60.571 32.276c-15.596-15.582-40.97-15.583-56.571.007-15.588 15.603-15.587 40.978.003 56.568 15.595 15.593 40.97 15.599 56.568.003 15.638-15.624 15.645-40.933 0-56.578zm-14.135 42.43l-.003.003c-7.799 7.799-20.488 7.799-28.287 0-7.797-7.794-7.795-20.487-.004-28.285 7.796-7.79 20.491-7.798 28.291-.003 7.813 7.812 7.828 20.467.003 28.285zm-59.57 31.295c-15.637-15.64-40.933-15.641-56.571-.002-15.627 15.627-15.629 40.932 0 56.562 15.595 15.593 40.97 15.599 56.568.003 15.635-15.621 15.646-40.935.003-56.563zm-14.139 42.415l-.003.003c-7.799 7.799-20.489 7.799-28.288 0-7.81-7.809-7.812-20.466 0-28.278 7.819-7.819 20.463-7.825 28.291.004 7.816 7.809 7.816 20.46 0 28.271zM367.06 144.94c-3.904-3.902-10.237-3.904-14.142 0L144.932 352.917c-3.905 3.905-3.906 10.237 0 14.143 3.906 3.905 10.237 3.905 14.142 0L367.06 159.083c3.905-3.905 3.906-10.237 0-14.143z"/></g></svg>