<svg xmlns="http://www.w3.org/2000/svg" viewBox="0 0 512 512" width="35" height="35"><g fill="#16afe0"><path d="M326 256c-5.52 0-10 4.48-10 10s4.48 10 10 10 10-4.48 10-10-4.48-10-10-10z"/><path d="M416 416h-11.946l-32.555-182.521C365.439 200.174 336.472 176 302.62 176h-93.24c-33.858 0-62.822 24.175-68.875 57.513L107.946 416H96c-16.542 0-30 13.458-30 30v40c0 5.522 4.477 10 10 10h360c5.522 0 10-4.478 10-10v-40c0-16.542-13.458-30-30-30zM160.189 237.056C164.508 213.267 185.196 196 209.38 196h93.24c24.181 0 44.873 17.268 49.195 41.025L383.738 416H128.262l31.927-178.944zM426 476H86v-30c0-5.514 4.486-10 10-10h320c5.514 0 10 4.486 10 10v30z"/><path d="M358.239 384.213l-14.67-80.75c-.987-5.436-6.202-9.044-11.626-8.052-5.435.987-9.039 6.192-8.052 11.626l14.67 80.75c.994 5.476 6.242 9.036 11.626 8.052 5.435-.987 9.04-6.193 8.052-11.626zM502 256h-86c-5.522 0-10 4.478-10 10s4.478 10 10 10h86c5.522 0 10-4.478 10-10s-4.478-10-10-10zm-406 0H10c-5.523 0-10 4.478-10 10s4.477 10 10 10h86c5.523 0 10-4.478 10-10s-4.477-10-10-10zM432.781 89.219c-3.906-3.904-10.236-3.904-14.143 0l-56.57 56.57c-3.905 3.905-3.905 10.237 0 14.143 3.907 3.905 10.236 3.904 14.143 0l56.57-56.57c3.906-3.906 3.906-10.238 0-14.143zm-282.849 56.57l-56.57-56.57c-3.906-3.904-10.237-3.905-14.143 0-3.905 3.905-3.905 10.237 0 14.143l56.57 56.57c3.907 3.905 10.237 3.905 14.143 0 3.905-3.905 3.905-10.237 0-14.143zM256 16c-5.522 0-10 4.478-10 10v80c0 5.522 4.478 10 10 10s10-4.478 10-10V26c0-5.522-4.478-10-10-10z"/></g></svg>