<svg xmlns="http://www.w3.org/2000/svg" viewBox="0 0 480 480" width="32" height="32"><g fill="#16afe0"><path d="M160 40h160v16H160zm236 260c0-15.438-12.563-28-28-28h-16V160h-16v112h-20c-15.438 0-28 12.563-28 28 0 7.838 3.258 14.912 8.466 20-5.208 5.088-8.466 12.162-8.466 20 0 5.393 1.605 10.39 4.259 14.668C282.689 359.125 276 368.768 276 380c0 4.311 1.061 8.349 2.809 12H216c0-24.461-12.258-46.109-30.953-59.125C203.125 325.984 216 308.469 216 288c0-4.418-3.578-8-8-8h-64v-80h-16v80c-13.234 0-24 10.766-24 24v176h16V304c0-4.41 3.586-8 8-8h70.984c-3.555 13.785-16.102 24-30.984 24h-24c-4.422 0-8 3.582-8 8s3.578 8 8 8c30.875 0 56 25.121 56 56v8c0 4.418 3.578 8 8 8h46.809c-1.748 3.651-2.809 7.689-2.809 12 0 15.438 12.563 28 28 28v32h16v-32h36c15.438 0 28-12.563 28-28 0-4.357-1.087-8.433-2.871-12.114C372.034 407.278 384 395.051 384 380c0-5.393-1.605-10.39-4.259-14.668C389.311 360.875 396 351.232 396 340c0-7.838-3.258-14.912-8.466-20 5.208-5.088 8.466-12.162 8.466-20zm-64 132h-52c-6.617 0-12-5.383-12-12s5.383-12 12-12h52c6.617 0 12 5.383 12 12s-5.383 12-12 12zm24-40h-52c-6.617 0-12-5.383-12-12s5.383-12 12-12h52c6.617 0 12 5.383 12 12s-5.383 12-12 12zm12-40h-52c-6.617 0-12-5.383-12-12s5.383-12 12-12h52c6.617 0 12 5.383 12 12s-5.383 12-12 12zm0-40h-52c-6.617 0-12-5.383-12-12s5.383-12 12-12h52c6.617 0 12 5.383 12 12s-5.383 12-12 12zM119.977 101.828a7.993 7.993 0 0 0-3.141-5.805l-8.328-6.313C106.516 79.625 97.664 72 87.078 72c-11.945 0-21.688 9.711-21.844 21.707a46.435 46.435 0 0 1-17.969-7.254l-2.789-1.883a7.991 7.991 0 0 0-8.234-.434A8.002 8.002 0 0 0 32 91.199v6.563c0 9.641 2.906 18.836 8.297 26.559l-5.984 6.055A8 8 0 0 0 40 144h38.766c15.461 0 28.242-11.785 29.961-26.91l8.961-9.066a8.008 8.008 0 0 0 2.289-6.196zm-24.743 6.149a7.987 7.987 0 0 0-2.313 5.625c0 7.938-6.352 14.398-14.156 14.398H58.414a8.012 8.012 0 0 0-1.648-8.824c-3.734-3.781-6.406-8.539-7.758-13.668a62.223 62.223 0 0 0 24.227 4.891c4.422 0 8-3.582 8-8V94c0-3.309 2.625-6 5.844-6s5.844 2.691 5.844 6a8.004 8.004 0 0 0 3.164 6.375l3.813 2.887-4.666 4.715z"/><path d="M264 136v-16h-24c-4.422 0-8 3.582-8 8v24h-16v16h16v32h16v-32h16v-16h-16v-16h16z"/><path d="M288 88h-96c-13.234 0-24 10.766-24 24v96c0 13.234 10.766 24 24 24h96c13.234 0 24-10.766 24-24v-96c0-13.234-10.766-24-24-24zm8 120c0 4.41-3.586 8-8 8h-96c-4.414 0-8-3.59-8-8v-96c0-4.41 3.586-8 8-8h96c4.414 0 8 3.59 8 8v96zM120 40H24C10.766 40 0 50.766 0 64v96c0 13.234 10.766 24 24 24h96c13.234 0 24-10.766 24-24V64c0-13.234-10.766-24-24-24zm8 120c0 4.41-3.586 8-8 8H24c-4.414 0-8-3.59-8-8V64c0-4.41 3.586-8 8-8h96c4.414 0 8 3.59 8 8v96zM456 0h-96c-13.234 0-24 10.766-24 24v96c0 13.234 10.766 24 24 24h96c13.234 0 24-10.766 24-24V24c0-13.234-10.766-24-24-24zm8 120c0 4.41-3.586 8-8 8h-96c-4.414 0-8-3.59-8-8V80h16.809c3.717 18.234 19.876 32 39.191 32s35.474-13.766 39.191-32H464v40zm-80-48c0-13.234 10.766-24 24-24s24 10.766 24 24-10.766 24-24 24-24-10.766-24-24zm80-8h-16.809C443.474 45.766 427.315 32 408 32s-35.474 13.766-39.191 32H352V24c0-4.41 3.586-8 8-8h96c4.414 0 8 3.59 8 8v40zM232 328h16v16h-16z"/></g></svg>