<svg version="1.1" id="Layer_1" xmlns="http://www.w3.org/2000/svg" x="0" y="0" viewBox="0 0 697.1 71.9" width="220" height="23" xml:space="preserve"><style>.st0{fill:#fff}</style><path class="st0" d="M154.7 9c2.5 0 4.5-2 4.5-4.5s-2-4.5-4.5-4.5-4.5 2-4.5 4.5 2 4.5 4.5 4.5zm15.2 0c2.5 0 4.5-2 4.5-4.5s-2-4.5-4.5-4.5-4.5 2-4.5 4.5 2 4.5 4.5 4.5zm163.3 54h-4.1V27.8c0-6.2-5.1-11.3-11.3-11.3h-13.2c-12.4 0-22.5 10.1-22.5 22.5v24H278c-2.5 0-4.5 2-4.5 4.5s2 4.5 4.5 4.5h55.1c2.5 0 4.5-2 4.5-4.5.1-2.5-1.9-4.5-4.4-4.5zm-42.1-24c0-7.5 6.1-13.6 13.6-13.6h13.2c1.3 0 2.3 1 2.3 2.3V63h-29.1V39zm-23.9-6.4c0-8.9-7.2-16.1-16.1-16.1h-18.7c-2.5 0-4.5 2-4.5 4.5s2 4.5 4.5 4.5h18.7c3.9 0 7.1 3.2 7.1 7.1s-3.2 7.1-7.1 7.1h-9.2c-2.5 0-4.5 2-4.5 4.5s2 4.5 4.5 4.5h9.2c3.9 0 7.1 3.2 7.1 7.1 0 3.9-3.2 7.1-7.1 7.1h-18.7c-2.5 0-4.5 2-4.5 4.5s2 4.5 4.5 4.5h18.7c8.9 0 16.1-7.2 16.1-16.1 0-4.6-1.9-8.7-5-11.6 3.1-2.9 5-7 5-11.6zM112 16.5H90c-8 0-14.6 6.5-14.6 14.6v15.3C75.4 60.5 86.9 72 101 72c14.1 0 25.6-11.5 25.6-25.6V31.1c0-8.1-6.6-14.6-14.6-14.6zm5.6 29.9c0 9.2-7.4 16.6-16.6 16.6-9.2 0-16.6-7.4-16.6-16.6V31.1c0-3.1 2.5-5.6 5.6-5.6h22c3.1 0 5.6 2.5 5.6 5.6v15.3zM50.9 16.5h-.8c-7.1.2-13.4 3.7-17.4 9.1-4-5.4-10.3-8.9-17.4-9.1h-.8C5 16.5 0 24.2 0 31.9v35.6C0 70 2 72 4.5 72S9 70 9 67.5V31.9c0-.7.2-6.4 5.6-6.4h.6c7.2.2 13 6.1 13.1 13.4v5.4c0 2.5 2 4.5 4.5 4.5s4.5-2 4.5-4.5v-5.4c.1-7.2 6-13.2 13.1-13.4h.6c5.4 0 5.6 5.8 5.6 6.4v35.6c0 2.5 2 4.5 4.5 4.5s4.5-2 4.5-4.5V31.9c-.1-7.7-5.1-15.4-14.7-15.4zm329.3 0h-22c-8 0-14.6 6.5-14.6 14.6v15.3c0 14.1 11.5 25.6 25.6 25.6 14.1 0 25.6-11.5 25.6-25.6V31.1c0-8.1-6.6-14.6-14.6-14.6zm5.6 29.9c0 9.2-7.4 16.6-16.6 16.6-9.2 0-16.6-7.4-16.6-16.6V31.1c0-3.1 2.5-5.6 5.6-5.6h22c3.1 0 5.6 2.5 5.6 5.6v15.3zm115.9-29.9h-22c-8 0-14.6 6.5-14.6 14.6v15.3c0 14.1 11.5 25.6 25.6 25.6 14.1 0 25.6-11.5 25.6-25.6V31.1c0-8.1-6.5-14.6-14.6-14.6zm5.6 29.9c0 9.2-7.4 16.6-16.6 16.6-9.2 0-16.6-7.4-16.6-16.6V31.1c0-3.1 2.5-5.6 5.6-5.6h22c3.1 0 5.6 2.5 5.6 5.6v15.3z"/><path class="st0" d="M106.9 40.5h-2.7v-2.7c0-1.7-1.4-3.1-3.1-3.1-1.7 0-3.1 1.4-3.1 3.1v2.7h-2.7c-1.7 0-3.1 1.4-3.1 3.1s1.4 3.1 3.1 3.1H98v2.7c0 1.7 1.4 3.1 3.1 3.1 1.7 0 3.1-1.4 3.1-3.1v-2.7h2.7c1.7 0 3.1-1.4 3.1-3.1s-1.4-3.1-3.1-3.1zM150 53h14.6c12.8 0 23.2-10.4 23.2-23.2 0-7.3-6-13.3-13.3-13.3H150c-7.3 0-13.3 6-13.3 13.3v22.6c0 10.8 8.8 19.5 19.5 19.5h21.1c2.5 0 4.5-2 4.5-4.5s-2-4.5-4.5-4.5h-21.1c-5.8 0-10.6-4.7-10.6-10.6v-.1c1.5.5 2.9.8 4.4.8zm0-27.5h24.5c2.4 0 4.4 2 4.4 4.4 0 7.8-6.4 14.2-14.2 14.2H150c-2.4 0-4.4-2-4.4-4.4v-9.9c.1-2.4 2-4.3 4.4-4.3zm536.7 37.2h-21.1c-5.8 0-10.6-4.7-10.6-10.6V52c1.4.5 2.8.7 4.4.7H674c12.8 0 23.2-10.4 23.2-23.2 0-7.3-6-13.3-13.3-13.3h-24.5c-7.3 0-13.3 6-13.3 13.3v22.6c0 10.8 8.8 19.5 19.5 19.5h21.1c2.5 0 4.5-2 4.5-4.5-.1-2.4-2.1-4.4-4.5-4.4zm-27.4-37.5h24.5c2.4 0 4.4 2 4.4 4.4 0 7.8-6.4 14.2-14.2 14.2h-14.6c-2.4 0-4.4-2-4.4-4.4v-9.9c0-2.4 1.9-4.3 4.3-4.3zm-216.2-8.7h-24.5c-7.3 0-13.3 6-13.3 13.3v37.7c0 2.5 2 4.5 4.5 4.5s4.5-2 4.5-4.5V52.3c1.4.5 2.8.7 4.4.7h14.6c12.8 0 23.2-10.4 23.2-23.2 0-7.3-6-13.3-13.4-13.3zm-9.8 27.6h-14.6c-2.4 0-4.4-2-4.4-4.4v-9.9c0-2.4 2-4.4 4.4-4.4h24.5c2.4 0 4.4 2 4.4 4.4-.1 7.9-6.5 14.3-14.3 14.3zm182.2-8.7h-14.6c-1.5 0-3 .3-4.4.7V21c0-2.5-2-4.5-4.5-4.5s-4.5 2-4.5 4.5v37.7c0 7.3 6 13.3 13.3 13.3h24.5c7.3 0 13.3-6 13.3-13.3.1-12.9-10.3-23.3-23.1-23.3zm9.9 27.6h-24.5c-2.4 0-4.4-2-4.4-4.4v-9.9c0-2.4 2-4.4 4.4-4.4h14.6c7.8 0 14.2 6.4 14.2 14.2.1 2.5-1.9 4.5-4.3 4.5zm-64.2-46.5h-21.7c-7.3 0-13.3 6-13.3 13.3v28.8c0 7.3 6 13.3 13.3 13.3h21.7c8.9 0 16.1-7.2 16.1-16.1 0-4.6-1.9-8.7-5-11.6 3.1-2.9 5-7.1 5-11.6 0-8.9-7.2-16.1-16.1-16.1zm0 46.5h-21.7c-2.4 0-4.4-2-4.4-4.4V48.5c.5.2.9.2 1.4.2h24.6c3.9 0 7.1 3.2 7.1 7.1.2 4-3 7.2-7 7.2zm0-23.3h-24.6c-.5 0-1 .1-1.4.2V29.8c0-2.4 2-4.4 4.4-4.4h21.7c3.9 0 7.1 3.2 7.1 7.1s-3.2 7.2-7.2 7.2z"/></svg>