<?xml version="1.0" encoding="UTF-8" ?>
<!DOCTYPE svg PUBLIC "-//W3C//DTD SVG 1.1//EN" "http://www.w3.org/Graphics/SVG/1.1/DTD/svg11.dtd">
<svg width="1920px" height="73px" viewBox="0 0 1920 73" version="1.1" xmlns="http://www.w3.org/2000/svg">
<g id="#0e63b6ff">
<path fill="#0e63b6" stroke="#0e63b6" stroke-width="0.09375" opacity="1.00" d=" M 917.75 0.00 L 1037.40 0.00 C 1048.55 0.85 1059.76 0.30 1070.93 0.62 C 1184.02 1.97 1297.09 5.13 1410.03 10.94 C 1507.85 16.06 1605.61 22.91 1702.98 33.75 C 1751.12 39.26 1799.20 45.58 1846.80 54.68 C 1871.46 59.51 1896.12 64.82 1920.00 72.74 L 1920.00 73.00 L 0.00 73.00 L 0.00 72.45 C 5.05 70.57 10.28 69.21 15.45 67.69 C 47.14 58.94 79.52 53.00 111.94 47.70 C 196.76 34.29 282.35 26.36 367.93 19.76 C 526.02 8.10 684.51 2.69 843.00 0.68 C 867.91 0.31 892.84 0.47 917.75 0.00 Z" />
</g>
</svg>
