<?xml version="1.0" encoding="utf-8"?>
<!-- Generator: Adobe Illustrator 21.1.0, SVG Export Plug-In . SVG Version: 6.00 Build 0)  -->
<svg version="1.1" id="Layer_1" xmlns="http://www.w3.org/2000/svg" xmlns:xlink="http://www.w3.org/1999/xlink" x="0px" y="0px"
	 viewBox="0 0 697.1 71.9" width="220px" height="23px" style="enable-background:new 0 0 697.1 71.9;" xml:space="preserve">
<style type="text/css">
	.st0{fill:#ffffff;}
</style>
<g>
	<path class="st0" d="M154.7,9c2.5,0,4.5-2,4.5-4.5s-2-4.5-4.5-4.5h0c-2.5,0-4.5,2-4.5,4.5S152.2,9,154.7,9z"/>
	<path class="st0" d="M169.9,9c2.5,0,4.5-2,4.5-4.5s-2-4.5-4.5-4.5h0c-2.5,0-4.5,2-4.5,4.5S167.4,9,169.9,9z"/>
	<path class="st0" d="M333.2,63h-4.1V27.8c0-6.2-5.1-11.3-11.3-11.3h-13.2c-12.4,0-22.5,10.1-22.5,22.5V63h-4.1
		c-2.5,0-4.5,2-4.5,4.5c0,2.5,2,4.5,4.5,4.5h55.1c2.5,0,4.5-2,4.5-4.5C337.7,65,335.7,63,333.2,63z M291.1,39
		c0-7.5,6.1-13.6,13.6-13.6h13.2c1.3,0,2.3,1,2.3,2.3V63h-29.1V39z"/>
	<path class="st0" d="M267.2,32.6c0-8.9-7.2-16.1-16.1-16.1h-18.7c-2.5,0-4.5,2-4.5,4.5c0,2.5,2,4.5,4.5,4.5h18.7
		c3.9,0,7.1,3.2,7.1,7.1s-3.2,7.1-7.1,7.1h-9.2c-2.5,0-4.5,2-4.5,4.5c0,2.5,2,4.5,4.5,4.5h9.2c3.9,0,7.1,3.2,7.1,7.1
		c0,3.9-3.2,7.1-7.1,7.1h-18.7c-2.5,0-4.5,2-4.5,4.5c0,2.5,2,4.5,4.5,4.5h18.7c8.9,0,16.1-7.2,16.1-16.1c0-4.6-1.9-8.7-5-11.6
		C265.3,41.3,267.2,37.2,267.2,32.6z"/>
	<path class="st0" d="M112,16.5H90c-8,0-14.6,6.5-14.6,14.6v15.3c0,14.1,11.5,25.6,25.6,25.6c14.1,0,25.6-11.5,25.6-25.6V31.1
		C126.6,23,120,16.5,112,16.5z M117.6,46.4c0,9.2-7.4,16.6-16.6,16.6h0c-9.2,0-16.6-7.4-16.6-16.6V31.1c0-3.1,2.5-5.6,5.6-5.6h22
		c3.1,0,5.6,2.5,5.6,5.6V46.4z"/>
	<path class="st0" d="M50.9,16.5c-0.3,0-0.5,0-0.8,0c-7.1,0.2-13.4,3.7-17.4,9.1c-4-5.4-10.3-8.9-17.4-9.1c-0.3,0-0.5,0-0.8,0
		C5,16.5,0,24.2,0,31.9v35.6c0,2.5,2,4.5,4.5,4.5c2.5,0,4.5-2,4.5-4.5V31.9c0-0.7,0.2-6.4,5.6-6.4c0.2,0,0.4,0,0.6,0
		c7.2,0.2,13,6.1,13.1,13.4c0,0.1,0,0.2,0,0.3c0,0.1,0,0.1,0,0.2v4.9c0,2.5,2,4.5,4.5,4.5c2.5,0,4.5-2,4.5-4.5v-5.1
		c0-0.1,0-0.2,0-0.3c0.1-7.2,6-13.2,13.1-13.4c0.2,0,0.4,0,0.6,0c5.4,0,5.6,5.8,5.6,6.4v35.6c0,2.5,2,4.5,4.5,4.5
		c2.5,0,4.5-2,4.5-4.5V31.9C65.5,24.2,60.5,16.5,50.9,16.5z"/>
	<path class="st0" d="M380.2,16.5h-22c-8,0-14.6,6.5-14.6,14.6v15.3c0,14.1,11.5,25.6,25.6,25.6c14.1,0,25.6-11.5,25.6-25.6V31.1
		C394.8,23,388.2,16.5,380.2,16.5z M385.8,46.4c0,9.2-7.4,16.6-16.6,16.6c-9.2,0-16.6-7.4-16.6-16.6V31.1c0-3.1,2.5-5.6,5.6-5.6h22
		c3.1,0,5.6,2.5,5.6,5.6V46.4z"/>
	<path class="st0" d="M501.7,16.5h-22c-8,0-14.6,6.5-14.6,14.6v15.3c0,14.1,11.5,25.6,25.6,25.6c14.1,0,25.6-11.5,25.6-25.6V31.1
		C516.3,23,509.8,16.5,501.7,16.5z M507.3,46.4c0,9.2-7.4,16.6-16.6,16.6c-9.2,0-16.6-7.4-16.6-16.6V31.1c0-3.1,2.5-5.6,5.6-5.6h22
		c3.1,0,5.6,2.5,5.6,5.6V46.4z"/>
	<path class="st0" d="M106.9,40.5h-2.7v-2.7c0-1.7-1.4-3.1-3.1-3.1c-1.7,0-3.1,1.4-3.1,3.1v2.7h-2.7c-1.7,0-3.1,1.4-3.1,3.1
		s1.4,3.1,3.1,3.1h2.7v2.7c0,1.7,1.4,3.1,3.1,3.1c1.7,0,3.1-1.4,3.1-3.1v-2.7h2.7c1.7,0,3.1-1.4,3.1-3.1S108.6,40.5,106.9,40.5z"/>
	<path class="st0" d="M150,53h14.6c12.8,0,23.2-10.4,23.2-23.2c0-7.3-6-13.3-13.3-13.3H150c-7.3,0-13.3,6-13.3,13.3v9.9v12.7
		c0,10.8,8.8,19.5,19.5,19.5h21.1c2.5,0,4.5-2,4.5-4.5c0-2.5-2-4.5-4.5-4.5h-21.1c-5.8,0-10.6-4.7-10.6-10.6v-0.1
		C147.1,52.7,148.5,53,150,53z M150,25.5h24.5c2.4,0,4.4,2,4.4,4.4c0,7.8-6.4,14.2-14.2,14.2H150c-2.4,0-4.4-2-4.4-4.4v-9.9
		C145.7,27.4,147.6,25.5,150,25.5z"/>
	<path class="st0" d="M686.7,62.7h-21.1c-5.8,0-10.6-4.7-10.6-10.6V52c1.4,0.5,2.8,0.7,4.4,0.7h14.6c12.8,0,23.2-10.4,23.2-23.2
		c0-7.3-6-13.3-13.3-13.3h-24.5c-7.3,0-13.3,6-13.3,13.3v9.9v12.7c0,10.8,8.8,19.5,19.5,19.5h21.1c2.5,0,4.5-2,4.5-4.5
		C691.1,64.7,689.1,62.7,686.7,62.7z M659.3,25.2h24.5c2.4,0,4.4,2,4.4,4.4c0,7.8-6.4,14.2-14.2,14.2h-14.6c-2.4,0-4.4-2-4.4-4.4
		v-9.9C655,27.1,656.9,25.2,659.3,25.2z"/>
	<path class="st0" d="M443.1,16.5h-24.5c-7.3,0-13.3,6-13.3,13.3v9.9v27.8c0,2.5,2,4.5,4.5,4.5s4.5-2,4.5-4.5V52.3
		c1.4,0.5,2.8,0.7,4.4,0.7h14.6c12.8,0,23.2-10.4,23.2-23.2C456.5,22.5,450.5,16.5,443.1,16.5z M433.3,44.1h-14.6
		c-2.4,0-4.4-2-4.4-4.4v-9.9c0-2.4,2-4.4,4.4-4.4h24.5c2.4,0,4.4,2,4.4,4.4C447.5,37.7,441.1,44.1,433.3,44.1z"/>
	<path class="st0" d="M615.5,35.4h-14.6c-1.5,0-3,0.3-4.4,0.7V21c0-2.5-2-4.5-4.5-4.5c-2.5,0-4.5,2-4.5,4.5v27.8v9.9
		c0,7.3,6,13.3,13.3,13.3h24.5c7.3,0,13.3-6,13.3-13.3C638.7,45.8,628.3,35.4,615.5,35.4z M625.4,63h-24.5c-2.4,0-4.4-2-4.4-4.4
		v-9.9c0-2.4,2-4.4,4.4-4.4h14.6c7.8,0,14.2,6.4,14.2,14.2C629.8,61,627.8,63,625.4,63z"/>
	<path class="st0" d="M561.2,16.5h-21.7c-7.3,0-13.3,6-13.3,13.3v28.8c0,7.3,6,13.3,13.3,13.3h21.7c8.9,0,16.1-7.2,16.1-16.1
		c0-4.6-1.9-8.7-5-11.6c3.1-2.9,5-7.1,5-11.6C577.3,23.7,570.1,16.5,561.2,16.5z M561.2,63h-21.7c-2.4,0-4.4-2-4.4-4.4V48.5
		c0.5,0.2,0.9,0.2,1.4,0.2h24.6c3.9,0,7.1,3.2,7.1,7.1C568.4,59.8,565.2,63,561.2,63z M561.2,39.7h-24.6c-0.5,0-1,0.1-1.4,0.2V29.8
		c0-2.4,2-4.4,4.4-4.4h21.7c3.9,0,7.1,3.2,7.1,7.1S565.2,39.7,561.2,39.7z"/>
</g>
</svg>
